<?xml version="1.0" standalone="no"?>
<!DOCTYPE svg PUBLIC "-//W3C//DTD SVG 20010904//EN"
 "http://www.w3.org/TR/2001/REC-SVG-20010904/DTD/svg10.dtd">
<svg version="1.0" xmlns="http://www.w3.org/2000/svg"
 width="88.000000pt" height="88.000000pt" viewBox="0 0 88.000000 88.000000"
 preserveAspectRatio="xMidYMid meet">
<metadata>
Created by potrace 1.14, written by Peter Selinger 2001-2017
</metadata>
<g transform="translate(0.000000,88.000000) scale(0.100000,-0.100000)"
fill="#000000" stroke="none">
<path d="M378 784 c-16 -8 -28 -21 -28 -28 0 -8 -5 -16 -10 -18 -6 -2 -12 -20
-13 -41 -3 -30 2 -45 24 -70 30 -34 27 -51 -11 -70 -12 -7 -23 -16 -23 -22 0
-5 -7 -16 -14 -23 -7 -7 -13 -20 -13 -28 0 -8 -5 -14 -11 -14 -6 0 -9 -9 -6
-20 3 -11 1 -20 -4 -20 -5 0 -9 -15 -9 -34 0 -23 -6 -36 -17 -40 -13 -5 -14
-9 -5 -15 10 -6 10 -11 -3 -21 -8 -7 -15 -19 -15 -27 0 -8 -4 -12 -9 -9 -5 4
-11 0 -14 -6 -3 -10 -9 -10 -24 -2 -20 13 -77 12 -106 -1 -10 -4 -20 -5 -23
-2 -9 9 -44 -26 -44 -44 0 -44 47 -95 83 -90 4 1 10 -6 13 -14 3 -8 10 -13 14
-10 5 3 14 0 22 -7 7 -7 24 -13 38 -13 14 0 30 -3 36 -8 15 -10 459 -4 499 7
17 5 38 8 48 8 9 0 15 3 12 8 -3 5 6 12 20 16 14 3 25 10 25 15 0 5 7 9 16 9
21 0 47 27 38 41 -4 8 -3 9 4 5 8 -5 12 2 12 21 0 34 -9 47 -35 51 -11 2 -27
6 -35 9 -29 12 -100 13 -100 2 0 -15 -45 -7 -46 9 -1 6 -2 17 -3 23 0 5 -5 7
-11 4 -5 -3 -10 2 -10 13 0 10 -3 22 -7 26 -4 3 -8 14 -9 23 -2 9 -6 28 -10
42 -4 14 -6 30 -5 35 1 5 -2 12 -6 15 -11 8 -37 64 -34 74 1 5 -3 6 -9 2 -5
-3 -10 -2 -10 4 0 5 -9 13 -20 16 -11 4 -20 15 -20 26 0 11 5 17 10 14 9 -5
12 1 9 21 0 4 4 10 10 14 16 9 17 71 1 103 -26 53 -104 73 -162 41z m110 -74
c7 -11 8 -20 3 -20 -6 0 -8 -9 -6 -19 5 -28 -40 -57 -61 -40 -22 18 -47 69
-34 69 5 0 10 7 10 15 0 24 72 20 88 -5z m-108 -215 c0 -1 -10 -10 -22 -21
-14 -12 -18 -13 -10 -3 6 9 10 18 7 21 -3 2 2 5 10 5 8 0 15 -1 15 -2z m83
-48 c-3 -4 1 -14 7 -22 6 -8 14 -26 16 -40 2 -14 6 -36 8 -50 2 -14 1 -27 -4
-30 -4 -2 -6 -18 -5 -34 2 -19 -3 -32 -12 -36 -8 -3 -13 -12 -10 -19 3 -8 -1
-17 -9 -20 -10 -4 -12 -2 -8 6 5 8 2 9 -10 5 -13 -5 -19 -1 -23 13 -3 11 -9
20 -13 20 -4 0 -6 12 -5 28 1 15 -3 34 -8 43 -6 9 -7 25 -2 35 9 22 14 41 17
71 1 12 6 19 10 17 4 -3 8 2 8 10 0 9 4 16 10 16 5 0 6 8 3 17 -5 14 -3 13 14
-3 11 -10 18 -23 16 -27z m72 34 c3 -5 0 -13 -6 -17 -7 -4 -9 -3 -5 4 3 5 0
13 -6 15 -9 4 -10 6 -1 6 6 1 14 -3 18 -8z m-190 -50 c3 -5 1 -12 -5 -16 -5
-3 -10 1 -10 9 0 18 6 21 15 7z m205 -7 c0 -8 -5 -12 -10 -9 -6 4 -8 11 -5 16
9 14 15 11 15 -7z m-223 -116 c-2 -32 3 -58 10 -66 7 -8 10 -18 7 -24 -4 -7
-9 -7 -13 0 -3 6 -18 13 -33 17 -17 4 -25 12 -23 23 2 9 4 23 4 30 1 6 6 12
12 12 5 0 7 -6 3 -12 -4 -7 -3 -10 1 -5 8 7 11 20 17 65 1 6 5 12 9 12 4 0 7
-24 6 -52z m238 43 c-3 -5 2 -16 11 -25 8 -9 13 -20 10 -25 -4 -5 0 -15 7 -23
18 -18 15 -44 -5 -40 -8 1 -18 -5 -22 -13 -5 -13 -8 -14 -20 -3 -10 9 -11 17
-4 26 6 7 11 35 11 62 0 28 4 50 9 50 5 0 7 -4 3 -9z m-449 -143 c-12 19 24
11 48 -11 15 -13 22 -14 28 -5 4 7 8 9 8 4 0 -5 7 -3 15 4 10 9 15 9 15 1 0
-6 7 -11 15 -11 20 0 65 -22 65 -32 0 -12 -128 -10 -135 3 -4 6 -13 8 -20 5
-7 -2 -16 -2 -20 2 -4 4 -10 7 -13 7 -4 1 -18 7 -31 14 -18 10 -21 15 -10 22
8 4 19 3 28 -4 12 -10 13 -9 7 1z m688 1 c9 -9 -37 -37 -68 -41 -14 -2 -28 -7
-32 -11 -11 -11 -144 -8 -144 3 0 6 3 10 8 9 13 -2 52 13 52 20 0 10 64 8 71
-1 3 -5 14 0 25 10 18 18 75 25 88 11z"/>
</g>
</svg>
